<?xml version="1.0" standalone="no"?>
<!DOCTYPE svg PUBLIC "-//W3C//DTD SVG 20010904//EN"
 "http://www.w3.org/TR/2001/REC-SVG-20010904/DTD/svg10.dtd">
<svg version="1.0" xmlns="http://www.w3.org/2000/svg"
 width="1200.000000pt" height="1200.000000pt" viewBox="0 0 1200.000000 1200.000000"
 preserveAspectRatio="xMidYMid meet">
<metadata>
Created by potrace 1.11, written by Peter Selinger 2001-2013
</metadata>
<g transform="translate(0.000000,1200.000000) scale(0.100000,-0.100000)"
fill="#000000" stroke="none">
<path d="M5537 11975 c-23 -6 -72 -10 -109 -9 -38 1 -68 -2 -68 -7 0 -4 -37
-10 -82 -13 -147 -9 -173 -12 -193 -22 -11 -6 -33 -9 -50 -8 -16 2 -34 -1 -40
-5 -5 -5 -30 -9 -54 -9 -24 -1 -47 -5 -50 -10 -3 -5 -19 -8 -36 -7 -16 1 -36
-3 -44 -9 -7 -6 -28 -9 -47 -7 -19 1 -34 -2 -34 -8 0 -6 -18 -11 -39 -11 -22
0 -43 -5 -46 -10 -3 -6 -17 -8 -30 -6 -14 3 -27 0 -30 -5 -4 -5 -19 -9 -35 -9
-16 0 -32 -4 -35 -10 -3 -5 -19 -8 -35 -6 -17 2 -31 -2 -34 -10 -3 -7 -14 -11
-25 -9 -11 2 -23 0 -26 -6 -4 -5 -17 -9 -30 -9 -13 0 -26 -4 -29 -9 -4 -5 -14
-8 -23 -7 -10 2 -24 -3 -31 -11 -8 -8 -23 -11 -38 -7 -13 3 -24 2 -24 -4 0 -9
-46 -24 -79 -26 -8 -1 -16 -6 -18 -12 -2 -7 -12 -10 -22 -7 -10 3 -22 0 -25
-6 -4 -6 -18 -11 -31 -11 -13 0 -27 -5 -31 -11 -3 -6 -14 -9 -24 -6 -11 3 -21
-2 -24 -10 -3 -8 -10 -12 -15 -9 -12 8 -61 -14 -61 -26 0 -5 -11 -6 -25 -4
-14 3 -25 0 -25 -5 0 -5 -7 -9 -15 -9 -8 0 -30 -9 -50 -20 -19 -11 -38 -20
-43 -20 -14 0 -92 -35 -92 -41 0 -3 -11 -5 -25 -4 -14 2 -25 -1 -25 -6 0 -5
-7 -9 -15 -9 -8 0 -15 -4 -15 -10 0 -5 -6 -10 -14 -10 -7 0 -33 -10 -57 -22
-25 -13 -51 -24 -59 -26 -8 -2 -18 -9 -22 -15 -4 -7 -8 -8 -8 -4 0 4 -24 -5
-54 -22 -30 -16 -57 -27 -60 -24 -3 4 -6 1 -6 -5 0 -7 -7 -12 -17 -12 -9 0
-31 -11 -49 -25 -18 -14 -37 -25 -43 -25 -6 0 -11 -5 -11 -10 0 -6 -3 -9 -7
-8 -12 2 -44 -13 -74 -33 -14 -10 -28 -16 -31 -14 -3 3 -13 -4 -23 -15 -10
-11 -24 -20 -32 -20 -7 0 -13 -5 -13 -12 0 -6 -3 -9 -6 -6 -3 4 -22 -5 -41
-18 -20 -13 -41 -24 -47 -24 -6 0 -18 -9 -26 -20 -8 -10 -27 -22 -42 -25 -15
-4 -34 -14 -40 -23 -7 -9 -20 -18 -28 -20 -8 -2 -20 -8 -25 -15 -11 -13 -40
-33 -65 -44 -8 -4 -24 -15 -34 -25 -10 -9 -22 -15 -26 -13 -3 2 -13 -5 -20
-16 -8 -10 -19 -19 -25 -19 -7 0 -22 -11 -35 -25 -13 -14 -25 -23 -28 -21 -2
3 -17 -8 -34 -22 -16 -15 -31 -25 -32 -22 -1 3 -16 -8 -33 -25 -17 -16 -50
-43 -73 -60 -23 -16 -55 -42 -72 -57 -17 -16 -34 -28 -38 -28 -4 0 -29 -22
-56 -50 -27 -27 -53 -50 -60 -50 -6 0 -41 -31 -77 -69 -36 -37 -68 -66 -71
-64 -6 6 -336 -323 -336 -334 0 -5 -31 -40 -70 -78 -38 -38 -70 -74 -70 -79 0
-5 -20 -28 -44 -52 -24 -23 -42 -44 -40 -47 2 -2 -12 -20 -31 -40 -19 -20 -35
-39 -35 -42 0 -4 -16 -23 -35 -43 -19 -20 -35 -41 -35 -45 0 -4 -11 -19 -25
-33 -14 -14 -23 -29 -20 -34 3 -4 -1 -10 -8 -13 -7 -3 -34 -37 -61 -76 -26
-39 -51 -71 -56 -71 -4 0 -11 -11 -14 -25 -4 -14 -11 -25 -16 -25 -6 0 -10 -4
-10 -10 0 -5 -8 -19 -18 -30 -9 -11 -17 -24 -17 -29 0 -4 -7 -15 -15 -24 -31
-34 -36 -43 -33 -54 2 -6 -6 -18 -19 -27 -13 -9 -21 -18 -18 -21 3 -2 -2 -12
-10 -22 -8 -10 -24 -37 -34 -60 -10 -23 -23 -40 -27 -37 -5 3 -9 -4 -9 -15 0
-12 -5 -21 -11 -21 -6 0 -8 -7 -5 -16 3 -8 2 -12 -4 -9 -6 3 -10 0 -10 -8 0
-8 -9 -24 -20 -37 -11 -12 -17 -26 -15 -30 3 -4 -2 -10 -10 -14 -8 -3 -12 -12
-9 -21 3 -8 1 -15 -5 -15 -6 0 -11 -7 -11 -15 0 -8 -5 -15 -11 -15 -5 0 -8 -4
-5 -8 6 -11 -31 -72 -44 -72 -5 0 -7 -7 -4 -15 4 -8 1 -15 -5 -15 -6 0 -11 -9
-11 -20 0 -11 -5 -20 -11 -20 -5 0 -8 -4 -5 -8 3 -5 -4 -23 -15 -40 -10 -18
-19 -39 -19 -47 0 -8 -5 -15 -12 -15 -6 0 -9 -3 -5 -6 3 -3 -7 -30 -24 -60
-16 -30 -25 -54 -21 -54 4 0 1 -4 -5 -8 -7 -4 -14 -17 -16 -27 -2 -11 -11 -35
-20 -52 -10 -18 -14 -33 -10 -33 5 0 1 -5 -9 -10 -10 -6 -14 -18 -11 -30 3
-11 1 -20 -5 -20 -10 0 -23 -29 -27 -62 -1 -10 -10 -29 -19 -43 -9 -14 -14
-29 -12 -34 3 -5 -1 -14 -8 -21 -8 -6 -13 -20 -11 -31 2 -10 0 -19 -6 -19 -5
0 -9 -9 -9 -19 0 -11 -5 -23 -10 -26 -6 -4 -8 -10 -5 -15 3 -5 -2 -16 -11 -25
-9 -9 -14 -18 -11 -21 3 -3 -4 -28 -14 -56 -10 -28 -16 -54 -14 -58 3 -5 -1
-10 -9 -13 -9 -4 -12 -17 -10 -36 2 -17 -1 -31 -6 -31 -6 0 -10 -11 -10 -25 0
-14 -5 -25 -11 -25 -7 0 -9 -10 -7 -24 3 -15 0 -27 -7 -30 -7 -2 -11 -16 -10
-30 2 -14 -1 -28 -6 -32 -5 -3 -9 -18 -9 -34 0 -16 -5 -32 -11 -36 -6 -3 -9
-14 -6 -24 3 -11 -1 -27 -7 -37 -7 -10 -11 -28 -10 -41 1 -12 -3 -25 -7 -28
-5 -3 -9 -18 -9 -35 0 -16 -4 -29 -8 -29 -5 0 -8 -12 -7 -27 1 -16 -2 -36 -8
-47 -5 -10 -11 -33 -13 -50 -9 -84 -12 -104 -22 -122 -5 -10 -9 -35 -7 -54 2
-19 -1 -37 -5 -40 -5 -3 -10 -31 -11 -63 -1 -31 -6 -57 -10 -57 -4 0 -7 -21
-5 -47 1 -27 -3 -57 -9 -68 -7 -11 -11 -48 -10 -82 0 -35 -3 -63 -7 -63 -4 0
-8 -47 -8 -104 0 -58 -4 -107 -8 -110 -10 -6 -9 -724 1 -746 3 -8 8 -62 11
-120 9 -208 11 -235 18 -240 4 -3 10 -35 13 -70 4 -36 9 -91 12 -123 2 -31 8
-57 12 -57 3 0 6 -19 6 -42 -1 -24 3 -46 8 -49 6 -4 11 -24 12 -45 2 -39 10
-88 22 -134 3 -14 7 -34 9 -45 2 -11 8 -40 14 -65 7 -25 12 -58 13 -75 1 -16
7 -36 14 -43 6 -7 10 -21 8 -32 -2 -11 0 -22 6 -25 5 -4 9 -17 9 -30 0 -13 4
-26 9 -29 4 -3 8 -16 7 -28 -1 -13 2 -26 7 -29 5 -4 10 -18 10 -33 0 -14 3
-26 8 -26 5 0 9 -11 9 -24 0 -13 8 -44 18 -68 11 -24 17 -49 15 -55 -3 -7 0
-13 6 -13 6 0 11 -11 11 -24 0 -14 5 -28 11 -31 6 -4 8 -12 6 -19 -3 -6 1 -20
9 -30 7 -11 11 -22 9 -27 -3 -4 -1 -10 5 -14 5 -3 10 -17 10 -31 0 -13 5 -24
10 -24 6 0 9 -3 9 -7 -3 -17 14 -73 22 -73 5 0 9 -11 9 -25 0 -14 4 -25 8 -25
5 0 9 -6 10 -12 5 -44 15 -77 22 -73 9 5 23 -30 23 -57 0 -10 4 -18 8 -18 5 0
9 -9 9 -20 0 -11 4 -20 9 -20 5 0 12 -12 17 -27 4 -16 8 -30 10 -33 1 -3 5
-15 9 -27 4 -13 11 -23 16 -23 5 0 8 -3 7 -7 -1 -5 9 -30 21 -58 13 -27 23
-52 23 -55 0 -3 5 -12 13 -20 7 -8 16 -25 19 -37 4 -13 12 -23 18 -23 5 0 8
-6 5 -14 -3 -8 -2 -16 2 -18 4 -2 25 -39 46 -83 21 -44 45 -86 52 -93 7 -7 13
-20 13 -28 0 -8 5 -14 10 -14 6 0 10 -9 10 -21 0 -12 4 -17 11 -14 6 4 9 1 8
-6 -3 -13 44 -95 71 -126 6 -7 7 -13 3 -13 -4 0 -3 -4 4 -8 6 -4 13 -14 15
-22 2 -8 11 -21 21 -28 9 -7 15 -17 12 -21 -2 -5 4 -16 15 -26 11 -10 20 -22
20 -26 0 -9 39 -69 73 -113 12 -16 25 -37 29 -47 4 -11 12 -19 18 -19 5 0 10
-6 10 -13 0 -8 9 -22 20 -32 11 -10 18 -20 16 -22 -4 -4 20 -36 52 -69 6 -7
12 -16 12 -21 0 -5 8 -16 18 -25 9 -10 33 -38 52 -63 19 -26 49 -62 67 -80 17
-18 29 -35 26 -38 -2 -3 15 -25 40 -49 24 -23 46 -48 48 -55 13 -38 598 -623
624 -623 4 0 24 -17 44 -38 20 -20 52 -48 71 -62 19 -13 42 -32 51 -42 9 -10
21 -18 26 -18 5 0 22 -13 38 -30 16 -16 31 -28 33 -25 3 2 17 -9 33 -26 15
-16 31 -29 34 -28 4 1 19 -8 34 -20 75 -61 89 -71 96 -71 4 0 16 -9 26 -21 10
-11 22 -18 27 -15 4 3 15 -4 22 -15 8 -10 19 -19 26 -19 6 0 19 -9 29 -20 10
-11 20 -18 23 -16 2 3 13 -4 25 -14 11 -11 23 -17 27 -15 5 3 10 -1 13 -9 3
-8 26 -24 51 -37 25 -12 46 -27 46 -31 0 -5 4 -7 9 -4 5 3 14 -1 21 -9 7 -8
18 -15 25 -15 7 0 18 -7 25 -15 7 -8 16 -13 20 -10 4 3 11 -2 14 -11 3 -8 10
-13 15 -10 4 3 16 -3 26 -14 10 -11 22 -17 26 -14 5 3 12 -2 15 -10 3 -9 11
-13 16 -10 6 4 13 3 17 -2 8 -11 46 -34 139 -80 39 -20 72 -41 72 -46 0 -5 4
-7 9 -4 10 7 61 -16 61 -27 0 -5 4 -6 9 -3 5 3 14 -1 21 -9 6 -7 18 -11 26 -8
8 3 14 0 14 -6 0 -6 7 -11 15 -11 9 0 30 -8 48 -17 18 -9 35 -17 39 -18 4 0
15 -7 25 -15 10 -9 21 -16 26 -17 48 -9 67 -16 67 -24 0 -5 9 -9 20 -9 11 0
20 -4 20 -9 0 -4 8 -8 18 -8 26 0 62 -14 62 -24 0 -5 10 -9 23 -9 13 0 27 -3
31 -7 3 -4 13 -8 21 -9 8 -1 29 -9 46 -18 18 -9 40 -16 51 -16 10 0 18 -5 18
-11 0 -6 9 -9 20 -6 11 3 20 1 20 -4 0 -5 11 -9 25 -9 14 0 25 -5 25 -11 0 -6
8 -9 18 -7 10 3 24 -1 31 -9 7 -8 19 -12 27 -9 7 3 16 1 19 -4 4 -6 17 -10 31
-10 13 0 24 -5 24 -12 0 -6 3 -9 6 -5 4 3 22 0 41 -8 18 -8 39 -12 47 -9 7 3
19 -2 26 -10 7 -9 16 -13 22 -10 5 3 14 1 21 -4 7 -6 24 -9 40 -7 15 2 25 -1
21 -6 -5 -8 23 -14 53 -10 6 1 14 -3 18 -9 3 -5 19 -10 35 -10 16 0 32 -5 35
-11 4 -6 14 -8 22 -5 8 3 24 1 35 -5 12 -6 35 -13 52 -15 92 -12 116 -17 116
-24 0 -4 12 -6 28 -5 15 1 32 -2 38 -7 7 -5 33 -9 58 -10 26 0 49 -4 52 -9 2
-4 25 -8 50 -7 26 0 49 -4 53 -9 3 -5 26 -9 51 -8 25 1 53 -2 63 -7 17 -9 65
-13 227 -22 41 -2 86 -8 100 -13 34 -13 879 -10 905 3 11 5 52 9 90 8 39 -1
75 2 80 5 6 4 35 8 66 9 31 1 67 5 80 10 13 5 42 8 64 7 22 -1 46 3 53 8 7 6
29 11 50 13 92 7 135 13 141 21 3 4 20 8 36 8 17 -1 44 5 61 12 17 7 34 9 38
6 3 -4 17 0 31 7 14 7 28 11 31 7 3 -3 17 -2 30 3 27 11 60 18 117 27 20 3 37
10 37 15 0 6 14 8 30 6 18 -3 30 0 30 7 0 6 13 10 30 9 17 -1 33 2 36 7 3 5
16 9 30 9 13 0 24 5 24 11 0 7 9 9 24 5 14 -3 28 0 35 8 7 8 21 12 31 9 11 -3
20 0 20 6 0 6 11 11 25 11 14 0 25 4 25 9 0 5 8 8 18 7 9 -2 25 3 36 10 10 7
25 10 32 7 8 -3 14 0 14 7 0 7 6 10 14 7 7 -3 18 -1 22 3 5 5 18 11 29 13 11
2 29 8 40 14 11 6 22 11 25 10 11 -1 86 27 104 39 10 7 25 10 32 7 8 -3 14 -1
14 5 0 5 12 13 26 16 14 4 45 15 68 26 49 22 88 35 99 32 4 -1 7 2 7 8 0 5 7
10 15 10 8 0 15 5 15 10 0 6 7 10 16 10 9 0 28 6 42 14 43 23 99 46 111 46 6
0 11 5 11 10 0 6 9 10 20 10 11 0 20 5 20 10 0 6 3 10 8 9 14 -2 52 13 52 21
0 7 28 18 41 16 4 -1 15 6 25 14 11 8 30 21 43 28 13 8 39 22 57 33 19 10 34
16 34 12 0 -4 7 2 15 13 8 10 15 15 15 10 0 -5 11 1 25 14 14 13 25 20 25 15
0 -4 8 -1 18 8 10 10 22 14 25 10 4 -3 7 -1 7 5 0 11 55 46 73 47 5 0 14 8 21
17 7 9 24 20 39 23 15 4 27 11 27 16 0 5 7 9 15 9 8 0 15 5 15 10 0 6 7 10 15
10 9 0 18 7 21 15 4 8 14 15 24 15 10 0 20 7 24 15 3 8 12 15 19 15 8 0 22 9
32 20 10 11 20 18 23 16 2 -3 13 4 25 14 11 11 39 32 61 47 23 15 53 38 69 52
15 14 27 21 27 17 0 -4 11 4 24 18 13 15 28 26 33 26 5 0 24 16 43 35 18 19
36 33 39 31 3 -2 24 13 46 35 22 21 43 39 47 39 5 0 26 19 48 41 22 23 43 40
45 37 6 -5 84 69 86 81 0 3 19 22 42 41 22 19 37 28 32 20 -10 -17 286 281
329 331 15 19 51 59 80 90 60 65 120 136 144 170 9 13 27 32 39 42 13 10 23
25 23 32 0 7 11 22 25 33 14 11 25 24 25 28 0 5 16 27 35 49 19 22 35 43 35
47 0 3 7 14 16 23 23 22 64 84 64 95 0 4 4 10 8 12 5 2 23 26 42 53 19 28 40
56 47 63 7 7 13 18 13 23 0 10 10 23 41 58 8 9 14 22 12 28 -2 6 5 17 15 25
11 7 23 24 27 37 4 14 16 34 26 45 11 11 19 26 19 33 0 7 5 13 11 13 5 0 8 4
5 9 -3 4 3 16 14 26 11 10 17 21 15 26 -3 4 3 12 12 18 10 5 15 13 10 17 -4 4
4 21 16 38 13 17 30 46 38 63 8 18 18 33 23 33 4 0 6 7 2 15 -3 8 -1 15 4 15
6 0 10 5 10 11 0 6 9 23 19 37 10 15 19 29 19 32 2 14 17 48 33 70 9 14 17 27
18 30 1 3 4 15 7 27 4 13 11 23 17 23 6 0 8 3 5 6 -4 3 7 30 23 61 16 30 27
59 24 63 -3 4 2 13 10 20 8 7 12 16 9 21 -3 5 0 9 6 9 7 0 10 6 7 14 -3 8 1
17 8 20 8 3 12 14 10 26 -2 11 0 20 4 20 5 0 11 8 14 18 3 9 17 42 30 73 13
30 21 61 19 67 -2 7 1 12 7 12 6 0 10 3 9 8 -1 8 9 39 23 64 5 10 9 27 9 38 0
11 5 20 11 20 7 0 9 10 7 24 -3 15 0 27 8 30 7 3 11 13 10 23 -2 10 0 20 3 23
10 8 61 167 61 190 0 11 5 20 11 20 6 0 9 6 6 13 -2 6 2 27 9 46 8 18 12 37 9
41 -3 5 -1 11 5 15 5 3 10 16 10 29 0 12 3 26 8 30 4 4 8 17 8 29 1 12 9 49
17 82 26 101 30 119 32 135 0 8 5 26 10 40 4 14 9 39 11 55 2 17 8 55 14 85 7
30 12 71 13 90 1 19 5 37 9 40 4 3 8 31 9 63 1 32 6 60 9 62 4 3 8 30 9 62 0
31 5 59 9 62 5 3 8 31 7 61 -1 30 2 65 6 77 5 12 9 66 10 120 1 54 5 103 8
108 9 15 9 735 1 735 -5 0 -8 48 -9 107 -1 59 -5 110 -9 113 -5 3 -7 30 -7 60
1 30 -3 63 -8 74 -5 10 -10 43 -13 75 -6 100 -16 171 -23 171 -4 0 -6 19 -6
43 1 23 -3 48 -8 54 -5 7 -9 28 -9 48 0 19 -4 35 -8 35 -4 0 -7 18 -6 40 0 22
-4 42 -10 44 -7 3 -10 20 -8 40 1 20 -1 36 -7 36 -5 0 -9 16 -9 35 0 19 -4 35
-10 35 -5 0 -8 14 -6 31 2 19 -1 32 -10 36 -8 3 -11 16 -9 34 2 16 -1 29 -6
29 -5 0 -9 13 -9 29 0 17 -4 32 -9 35 -5 4 -8 14 -7 24 2 9 -3 31 -10 48 -7
17 -10 34 -7 38 4 3 1 6 -5 6 -7 0 -12 11 -12 24 0 14 -5 28 -11 31 -6 4 -8
14 -5 22 3 8 1 24 -6 36 -13 23 -14 26 -23 72 -3 16 -10 32 -14 35 -5 3 -7 13
-5 23 1 9 -2 17 -7 17 -5 0 -9 9 -9 19 0 11 -4 23 -10 26 -5 3 -10 15 -10 26
0 10 -5 19 -10 19 -6 0 -9 3 -8 8 3 13 -14 77 -30 107 -9 17 -17 35 -18 40 -3
23 -17 55 -23 55 -4 0 -8 10 -8 22 -1 13 -7 24 -12 26 -5 2 -7 10 -4 18 3 8 1
14 -5 14 -10 0 -25 41 -27 69 0 8 -6 16 -13 19 -6 2 -9 8 -6 14 4 6 2 13 -3
17 -11 8 -48 83 -45 94 1 4 -2 7 -7 7 -5 0 -12 13 -16 29 -3 16 -12 35 -20 41
-8 6 -11 18 -8 26 3 8 1 14 -4 14 -5 0 -17 20 -27 45 -11 25 -23 45 -28 45 -4
0 -8 7 -8 15 0 8 -4 15 -10 15 -5 0 -7 7 -4 15 4 8 2 15 -3 15 -5 0 -15 16
-23 35 -8 19 -18 35 -22 35 -5 0 -7 4 -3 10 3 5 -3 18 -14 29 -11 11 -23 32
-27 46 -3 14 -10 25 -15 25 -5 0 -9 9 -9 19 0 10 -7 21 -15 25 -8 3 -15 12
-15 21 0 8 -4 15 -9 15 -5 0 -12 11 -15 25 -4 14 -11 25 -16 25 -6 0 -10 6
-10 13 0 7 -9 23 -19 34 -11 12 -17 23 -14 27 3 3 -2 8 -11 12 -9 3 -13 10
-10 16 3 5 -3 18 -15 29 -12 11 -19 24 -16 29 3 4 -2 11 -10 14 -9 3 -20 16
-25 28 -15 35 -33 61 -57 83 -13 11 -23 25 -23 31 0 11 -17 35 -64 90 -15 19
-25 34 -20 34 4 0 -5 10 -19 23 -15 12 -27 26 -27 31 0 8 -15 27 -97 122 -19
23 -35 45 -34 48 1 4 -19 26 -43 50 -25 24 -43 46 -41 48 3 3 -21 30 -53 62
-70 70 -92 94 -92 102 0 14 -470 464 -484 464 -4 0 -25 17 -45 38 -48 47 -91
83 -91 77 0 -6 -23 14 -87 72 -19 18 -38 31 -43 28 -4 -2 -16 7 -26 20 -10 14
-24 25 -30 25 -7 0 -22 11 -35 25 -13 13 -28 25 -32 25 -4 0 -20 11 -35 25
-15 14 -33 25 -40 25 -7 0 -15 7 -18 15 -4 8 -12 15 -19 15 -7 0 -19 7 -26 16
-7 9 -22 20 -34 25 -31 14 -58 32 -77 53 -10 10 -18 15 -18 11 0 -5 -11 2 -25
15 -14 13 -25 20 -25 15 0 -4 -9 0 -20 10 -11 10 -20 14 -20 10 0 -4 -9 2 -19
14 -11 12 -21 22 -23 21 -9 -4 -58 21 -58 29 0 5 -18 16 -39 24 -22 9 -42 21
-45 26 -7 10 -111 62 -122 60 -4 0 -10 3 -13 8 -6 9 -63 47 -71 48 -12 1 -105
51 -108 58 -2 4 -12 7 -23 7 -10 0 -19 4 -19 9 0 9 -57 27 -72 23 -5 -1 -8 2
-8 8 0 5 -9 10 -20 10 -11 0 -20 5 -20 11 0 5 -4 7 -10 4 -5 -3 -10 -1 -10 4
0 6 -9 11 -20 11 -11 0 -20 4 -20 9 0 10 -36 24 -62 24 -10 0 -18 2 -18 6 0 7
-79 41 -100 43 -3 0 -18 9 -33 20 -15 11 -34 17 -42 15 -7 -3 -19 1 -25 8 -7
8 -15 13 -19 11 -3 -2 -24 4 -45 15 -21 10 -42 16 -46 14 -4 -3 -13 2 -20 10
-7 9 -21 13 -31 10 -11 -4 -19 -2 -19 4 0 6 -11 11 -24 11 -14 0 -27 4 -31 9
-3 6 -14 8 -25 6 -12 -2 -20 2 -20 10 0 8 -8 12 -20 10 -11 -2 -22 0 -25 6 -4
5 -17 9 -31 9 -13 0 -24 5 -24 11 0 5 -8 9 -17 8 -10 -1 -29 3 -43 8 -14 6
-30 8 -36 6 -7 -2 -15 0 -19 6 -3 6 -19 11 -36 11 -16 0 -29 4 -29 9 0 5 -8 8
-17 7 -10 -2 -27 2 -38 9 -11 6 -30 11 -42 10 -13 -1 -23 1 -23 5 0 7 -34 15
-99 23 -14 2 -26 7 -28 13 -2 5 -21 8 -43 6 -25 -3 -40 0 -40 7 0 7 -13 10
-35 8 -20 -3 -39 1 -45 8 -5 7 -26 11 -46 10 -19 -1 -37 2 -40 7 -3 4 -24 8
-48 8 -23 0 -46 3 -50 8 -4 4 -24 7 -44 8 -20 0 -46 5 -57 10 -11 6 -39 10
-63 9 -23 -1 -45 2 -48 7 -3 4 -36 8 -74 8 -38 0 -71 4 -75 9 -3 6 -46 9 -95
8 -50 -1 -91 2 -93 8 -5 13 -814 13 -870 0z m858 -910 c55 -3 107 -9 115 -12
8 -3 40 -7 70 -8 30 -1 64 -6 75 -11 11 -6 39 -9 63 -8 23 1 45 -2 48 -7 3 -5
25 -9 49 -9 24 0 46 -4 49 -9 4 -5 21 -8 39 -7 17 1 41 -3 52 -8 11 -6 30 -9
43 -7 13 1 29 -3 37 -9 8 -7 20 -10 27 -7 7 2 21 0 31 -5 10 -5 30 -11 45 -13
15 -3 44 -9 64 -14 20 -5 39 -6 42 -3 4 3 6 0 6 -7 0 -7 8 -11 18 -10 9 2 27
-2 38 -9 12 -6 24 -9 26 -7 3 3 21 -2 41 -10 21 -8 37 -12 37 -9 0 4 7 1 15
-6 8 -7 24 -10 34 -7 11 3 22 -1 25 -8 3 -8 13 -11 25 -8 12 3 21 1 21 -6 0
-6 10 -11 23 -11 13 0 28 -5 35 -12 7 -7 12 -9 12 -5 0 4 10 2 23 -5 12 -7 27
-13 32 -13 11 -1 30 -8 90 -33 22 -10 45 -16 52 -14 7 2 13 -1 13 -5 0 -4 27
-17 60 -27 33 -11 60 -22 60 -26 0 -3 10 -6 22 -7 11 -1 25 -8 29 -15 5 -7 9
-10 9 -6 0 4 16 -1 35 -12 20 -11 42 -20 50 -20 8 0 15 -5 15 -11 0 -5 4 -8 9
-4 5 3 15 -1 23 -8 7 -8 19 -12 26 -9 6 2 12 -1 12 -8 0 -6 5 -8 10 -5 6 3 13
0 16 -9 3 -8 12 -12 20 -9 8 3 14 0 14 -6 0 -6 9 -11 20 -11 11 0 20 -5 20
-12 0 -6 3 -8 7 -5 3 4 15 0 25 -10 10 -9 18 -13 18 -9 0 4 14 -2 30 -14 17
-12 30 -18 30 -14 0 4 10 -2 23 -13 12 -11 37 -26 55 -34 17 -8 32 -18 32 -22
0 -5 4 -5 10 -2 5 3 17 0 25 -7 9 -7 21 -17 28 -23 7 -5 26 -17 42 -25 17 -8
45 -25 63 -38 17 -14 32 -21 32 -18 0 4 10 -2 22 -14 12 -11 25 -20 30 -20 4
0 17 -8 28 -17 11 -10 24 -18 29 -18 4 0 15 -8 25 -17 9 -10 30 -25 46 -35 17
-9 30 -21 30 -26 0 -4 4 -6 9 -2 5 3 16 -4 25 -16 8 -12 19 -18 25 -14 6 3 14
-1 17 -9 3 -9 22 -25 41 -37 34 -21 47 -31 106 -84 15 -14 31 -25 36 -25 4 0
26 -18 49 -40 22 -22 44 -40 48 -40 4 0 33 -24 65 -52 100 -91 472 -458 464
-458 -5 0 16 -26 46 -59 97 -105 123 -136 135 -157 12 -22 45 -63 80 -100 12
-13 20 -24 18 -26 -2 -2 10 -19 26 -38 17 -19 30 -38 30 -41 0 -3 11 -18 25
-33 14 -15 23 -31 20 -36 -3 -5 4 -12 16 -15 12 -4 18 -12 15 -21 -3 -7 3 -19
13 -26 9 -7 20 -20 24 -28 10 -22 29 -51 49 -73 10 -11 15 -24 12 -29 -3 -4
-1 -8 4 -8 5 0 13 -8 16 -17 13 -33 31 -63 38 -63 5 0 8 -7 8 -16 0 -9 9 -25
21 -35 11 -9 21 -21 21 -26 3 -24 11 -43 19 -43 5 0 9 -9 9 -20 0 -11 5 -20
10 -20 9 0 32 -42 34 -63 1 -4 8 -12 16 -17 8 -5 12 -10 8 -10 -4 0 26 -66 67
-147 41 -80 75 -152 75 -160 0 -15 21 -55 33 -64 5 -3 8 -9 8 -13 -2 -17 12
-66 19 -66 9 0 24 -49 21 -67 -1 -7 3 -13 9 -13 5 0 10 -9 10 -20 0 -11 5 -20
10 -20 6 0 10 -11 10 -24 0 -14 5 -28 10 -31 6 -4 8 -10 5 -15 -3 -5 -1 -11 5
-15 5 -3 10 -17 10 -30 0 -13 5 -27 11 -30 6 -4 8 -13 5 -21 -3 -8 0 -17 8
-20 8 -3 11 -15 8 -30 -2 -14 0 -24 7 -24 6 0 11 -11 11 -24 0 -14 5 -28 11
-31 6 -4 8 -13 5 -20 -2 -7 0 -17 6 -23 6 -6 12 -24 14 -39 1 -15 3 -28 4 -28
2 0 11 -37 12 -52 1 -7 4 -13 8 -13 3 0 6 -8 7 -17 3 -32 14 -78 25 -100 6
-12 8 -31 5 -42 -2 -11 1 -22 7 -24 7 -3 12 -20 11 -38 0 -19 3 -39 7 -45 4
-6 9 -24 10 -40 1 -16 4 -33 7 -39 3 -5 6 -24 7 -41 1 -17 5 -38 10 -45 5 -8
10 -30 12 -49 1 -19 5 -65 8 -102 3 -38 10 -68 14 -68 5 0 8 -31 7 -70 -1 -41
2 -71 8 -74 7 -2 10 -42 10 -100 -1 -53 3 -96 7 -96 10 0 11 -554 1 -564 -5
-4 -8 -49 -9 -99 0 -51 -4 -103 -9 -117 -5 -14 -8 -51 -7 -82 1 -32 -3 -58 -8
-58 -6 0 -10 -29 -10 -64 0 -36 -4 -67 -9 -70 -5 -3 -8 -26 -7 -51 1 -25 -2
-46 -7 -48 -4 -1 -9 -18 -9 -37 0 -19 -4 -39 -8 -45 -3 -5 -7 -26 -9 -45 -1
-19 -6 -36 -10 -38 -5 -2 -7 -18 -5 -37 2 -19 0 -37 -6 -40 -5 -3 -10 -19 -10
-35 0 -16 -5 -32 -11 -35 -6 -4 -8 -12 -6 -19 2 -6 0 -22 -6 -36 -5 -14 -10
-34 -11 -45 -1 -11 -5 -26 -9 -33 -5 -7 -9 -26 -9 -42 -1 -17 -5 -30 -11 -30
-5 0 -7 -8 -5 -18 3 -10 -1 -23 -8 -30 -7 -7 -11 -19 -8 -27 4 -8 1 -15 -5
-15 -6 0 -11 -13 -11 -29 0 -17 -5 -33 -11 -36 -6 -4 -8 -13 -5 -21 3 -7 0
-19 -7 -26 -7 -7 -12 -23 -11 -35 1 -13 -3 -23 -7 -23 -5 0 -9 -11 -9 -25 0
-14 -5 -25 -11 -25 -6 0 -9 -7 -5 -15 3 -9 0 -15 -8 -15 -9 0 -12 -8 -8 -25 2
-15 0 -25 -7 -25 -6 0 -11 -8 -11 -19 0 -10 -7 -32 -15 -47 -8 -16 -15 -37
-15 -46 0 -10 -4 -18 -9 -18 -9 0 -24 -42 -26 -69 0 -8 -5 -16 -12 -18 -7 -3
-9 -11 -6 -19 3 -8 1 -14 -5 -14 -5 0 -13 -10 -17 -22 -4 -13 -8 -25 -9 -28
-1 -3 -7 -14 -13 -25 -6 -11 -12 -23 -13 -27 -1 -4 -4 -17 -7 -28 -3 -11 -9
-20 -14 -20 -5 0 -8 -3 -7 -7 1 -5 -4 -21 -11 -38 -7 -16 -12 -32 -11 -34 1
-2 -4 -7 -12 -12 -7 -5 -13 -12 -14 -16 -2 -19 -27 -69 -59 -118 -19 -28 -35
-59 -35 -69 0 -9 -4 -16 -10 -16 -5 0 -10 -9 -10 -19 0 -10 -7 -21 -15 -25 -8
-3 -15 -10 -15 -17 0 -6 -9 -23 -19 -37 -10 -15 -20 -31 -20 -37 -2 -10 -27
-47 -46 -69 -6 -6 -19 -27 -28 -46 -23 -46 -38 -69 -60 -92 -10 -10 -15 -24
-11 -31 4 -7 4 -9 -1 -5 -7 7 -46 -34 -46 -49 0 -4 -10 -18 -21 -30 -12 -13
-18 -23 -14 -23 5 0 -6 -13 -23 -29 -18 -17 -32 -34 -33 -38 -2 -19 -11 -32
-19 -27 -5 3 -9 -2 -9 -10 0 -9 -5 -16 -11 -16 -5 0 -8 -4 -4 -9 3 -5 -3 -16
-13 -23 -11 -7 -30 -29 -44 -49 -14 -20 -37 -48 -51 -62 -15 -13 -27 -28 -27
-33 0 -6 -27 -36 -59 -68 -33 -33 -59 -62 -58 -66 1 -4 -83 -91 -188 -193
-244 -239 -294 -285 -300 -279 -3 3 -5 0 -5 -6 0 -7 -4 -11 -9 -10 -5 2 -19
-8 -32 -23 -13 -14 -42 -38 -64 -54 -22 -16 -44 -35 -48 -42 -4 -7 -13 -13
-18 -13 -6 0 -17 -7 -25 -15 -9 -8 -46 -36 -82 -62 -37 -26 -68 -51 -70 -55
-2 -5 -10 -8 -18 -8 -8 0 -17 -6 -20 -14 -3 -8 -19 -20 -35 -26 -16 -7 -29
-16 -29 -20 0 -4 -10 -12 -22 -19 -13 -6 -36 -20 -53 -31 -16 -11 -37 -23 -45
-27 -8 -3 -17 -9 -20 -12 -8 -10 -43 -30 -82 -48 -21 -10 -38 -21 -38 -25 0
-3 -25 -19 -55 -33 -30 -15 -59 -33 -65 -40 -6 -8 -17 -12 -24 -9 -8 3 -16 -2
-20 -11 -3 -9 -10 -13 -16 -10 -5 3 -10 1 -10 -4 0 -6 -9 -11 -20 -11 -11 0
-20 -5 -20 -11 0 -5 -5 -7 -10 -4 -6 3 -13 0 -16 -9 -3 -8 -12 -12 -20 -9 -8
3 -14 0 -14 -6 0 -6 -9 -11 -20 -11 -11 0 -20 -4 -20 -9 0 -7 -36 -22 -49 -20
-2 0 -7 -3 -10 -8 -8 -11 -93 -49 -103 -45 -5 1 -8 -2 -8 -8 0 -5 -9 -10 -19
-10 -11 0 -23 -5 -26 -10 -4 -6 -11 -8 -16 -5 -5 4 -9 1 -9 -4 0 -6 -9 -11
-20 -11 -11 0 -20 -4 -20 -10 0 -5 -11 -10 -25 -10 -14 0 -25 -4 -25 -10 0 -5
-18 -13 -40 -16 -22 -4 -40 -10 -40 -15 0 -5 -11 -9 -25 -9 -14 0 -25 -5 -25
-11 0 -5 -4 -8 -9 -4 -5 3 -12 1 -16 -5 -3 -5 -17 -10 -31 -10 -13 0 -24 -5
-24 -10 0 -6 -11 -8 -24 -6 -16 3 -27 -1 -30 -10 -3 -9 -10 -13 -16 -9 -9 5
-17 3 -68 -24 -13 -6 -26 -9 -31 -7 -4 3 -16 -1 -27 -8 -10 -8 -24 -12 -30 -9
-7 2 -15 0 -19 -6 -3 -6 -19 -11 -35 -11 -16 0 -31 -4 -35 -9 -3 -6 -14 -8
-24 -6 -11 2 -22 -3 -25 -10 -3 -8 -13 -11 -25 -8 -12 3 -28 0 -36 -7 -8 -7
-24 -10 -35 -7 -10 3 -24 -1 -30 -7 -5 -7 -23 -12 -40 -11 -16 1 -30 -2 -30
-7 0 -4 -18 -8 -40 -8 -22 0 -40 -4 -40 -10 0 -5 -20 -10 -45 -10 -25 0 -45
-4 -45 -9 0 -4 -15 -7 -32 -6 -18 0 -42 -4 -53 -10 -11 -6 -33 -10 -50 -9 -16
1 -34 -2 -40 -6 -5 -4 -32 -7 -59 -7 -26 -1 -51 -5 -55 -10 -3 -5 -32 -8 -64
-8 -32 1 -60 -2 -63 -7 -3 -4 -50 -8 -105 -8 -54 0 -99 -4 -99 -8 0 -11 -709
-11 -716 0 -3 4 -48 8 -100 8 -52 0 -94 4 -94 9 0 4 -26 8 -57 7 -32 -1 -68 4
-80 10 -12 6 -38 9 -59 8 -20 -2 -42 0 -48 4 -6 4 -27 8 -47 8 -20 1 -43 5
-50 10 -8 5 -27 10 -44 11 -82 8 -125 16 -125 24 0 5 -18 9 -39 9 -22 0 -42 4
-45 9 -3 4 -17 7 -30 6 -14 -2 -30 3 -36 10 -5 7 -21 10 -35 7 -15 -3 -25 0
-25 8 0 6 -6 10 -12 7 -7 -2 -30 2 -50 9 -21 7 -38 10 -38 7 0 -4 -5 -2 -12 5
-7 7 -24 12 -39 12 -15 0 -31 5 -35 11 -3 6 -14 9 -24 6 -11 -3 -21 2 -24 10
-3 8 -10 12 -14 9 -8 -5 -65 12 -87 25 -5 4 -18 5 -27 4 -9 -2 -19 3 -22 10
-3 8 -13 11 -25 8 -12 -3 -21 -1 -21 6 0 6 -10 11 -22 11 -13 0 -32 7 -42 15
-11 8 -30 15 -42 15 -13 0 -26 4 -29 10 -3 5 -15 10 -26 10 -10 0 -19 5 -19
11 0 6 -7 9 -15 5 -8 -3 -15 -1 -15 4 0 6 -11 10 -25 10 -14 0 -25 5 -25 10 0
6 -9 10 -20 10 -11 0 -20 5 -20 12 0 6 -3 9 -6 5 -3 -3 -21 3 -40 14 -19 10
-39 19 -45 19 -12 0 -81 31 -89 40 -3 3 -25 14 -50 25 -25 11 -48 24 -52 30
-4 5 -8 6 -8 1 0 -5 -8 -2 -17 7 -10 8 -21 16 -25 17 -33 7 -48 13 -48 20 0 4
-12 11 -27 15 -15 3 -35 15 -44 26 -10 11 -21 21 -26 21 -24 3 -43 11 -43 19
0 5 -7 9 -15 9 -9 0 -29 9 -45 20 -17 11 -43 29 -60 40 -16 11 -32 20 -36 20
-4 0 -22 11 -40 25 -18 14 -37 25 -42 25 -5 0 -17 9 -27 20 -10 11 -20 18 -23
15 -3 -2 -13 5 -23 16 -10 12 -22 19 -26 16 -10 -6 -34 19 -26 27 4 3 1 6 -6
6 -16 0 -102 59 -119 83 -7 9 -20 17 -28 17 -8 0 -24 11 -36 25 -12 14 -26 25
-31 25 -6 0 -25 15 -43 34 -18 19 -35 31 -38 28 -3 -3 -21 11 -39 32 -18 20
-38 36 -43 36 -6 0 -36 27 -68 60 -32 33 -61 58 -65 57 -15 -4 -481 479 -481
499 0 4 -18 25 -40 45 -22 21 -40 42 -40 48 0 6 -16 25 -35 42 -19 18 -33 35
-30 37 3 3 -9 21 -27 39 -17 18 -28 33 -24 33 5 0 -6 14 -24 30 -18 17 -29 30
-24 30 4 0 -3 11 -15 24 -13 14 -20 29 -16 35 3 6 0 11 -8 11 -7 0 -20 12 -28
27 -8 16 -22 35 -31 44 -10 9 -18 19 -18 23 0 10 -64 111 -72 114 -4 2 -8 10
-8 18 0 8 -4 14 -9 14 -5 0 -14 12 -20 28 -6 15 -22 45 -35 67 -14 22 -37 63
-51 90 -14 28 -36 66 -47 85 -44 74 -106 199 -100 204 3 3 0 6 -6 6 -7 0 -12
9 -12 19 0 11 -4 23 -10 26 -5 3 -10 15 -10 26 0 10 -5 19 -12 19 -6 0 -9 3
-5 6 3 3 -5 25 -19 49 -13 24 -25 52 -27 63 -1 10 -11 31 -20 46 -10 15 -16
30 -13 34 3 5 -4 23 -15 40 -10 18 -19 41 -19 51 0 10 -3 21 -8 25 -4 4 -7 11
-8 14 -3 26 -18 62 -25 62 -5 0 -9 11 -9 25 0 14 -4 25 -9 25 -4 0 -8 10 -7
22 1 13 -4 29 -11 36 -7 7 -10 19 -7 27 4 8 1 15 -7 15 -7 0 -10 2 -7 6 3 3 0
25 -7 49 -8 24 -11 46 -8 49 4 3 1 6 -5 6 -7 0 -12 11 -12 24 0 14 -4 28 -10
31 -5 3 -10 19 -10 35 0 16 -4 31 -8 34 -5 3 -8 15 -7 28 1 12 -4 33 -11 46
-7 14 -10 31 -7 38 3 8 1 14 -4 14 -6 0 -10 14 -11 31 0 17 -5 36 -10 42 -5 7
-8 27 -7 44 1 18 -2 33 -6 33 -5 0 -9 18 -9 40 0 22 -4 40 -8 40 -5 0 -9 15
-9 33 0 19 -3 42 -8 53 -5 10 -9 35 -10 54 -1 19 -4 42 -8 50 -6 16 -16 102
-20 190 -1 30 -7 61 -11 69 -5 8 -10 60 -10 117 -1 56 -4 106 -9 110 -9 10 -9
548 0 558 5 4 8 47 9 96 1 49 5 97 9 107 4 10 9 45 12 78 8 128 15 185 23 185
4 0 7 16 5 35 -1 20 3 45 10 58 6 12 10 36 8 54 -2 17 1 34 7 38 5 3 10 24 10
46 0 21 3 39 8 39 4 0 8 13 8 30 1 16 5 37 9 47 5 10 7 28 6 41 -1 12 3 22 9
22 7 0 10 12 9 28 -2 15 1 34 6 42 9 15 11 21 21 83 3 20 10 37 15 37 5 0 9
13 9 28 0 16 3 32 7 36 4 3 8 12 9 19 1 7 9 33 18 60 10 26 14 51 12 56 -3 5
1 12 10 15 8 3 13 10 9 16 -3 5 -1 17 4 27 12 23 23 53 28 78 2 11 8 24 13 29
4 4 6 15 3 22 -3 8 0 14 6 14 6 0 11 9 11 20 0 11 5 20 10 20 6 0 10 6 8 13
-1 6 8 37 21 67 14 30 26 62 27 70 2 8 7 16 13 18 5 2 7 10 4 18 -3 8 0 14 6
14 6 0 11 9 11 20 0 11 4 20 10 20 5 0 9 4 7 8 -3 10 46 116 56 120 4 2 7 10
7 18 0 7 9 28 19 46 11 17 18 35 15 40 -3 4 0 8 5 8 6 0 11 7 11 15 0 8 5 15
11 15 5 0 8 4 4 9 -3 5 1 16 9 24 8 8 12 17 9 21 -4 3 -1 6 5 6 7 0 12 9 12
20 0 11 6 23 13 26 8 3 20 20 27 39 8 19 18 35 22 35 5 0 7 4 3 10 -3 5 3 18
13 28 19 19 36 51 34 63 -1 4 8 15 18 24 11 10 20 24 20 32 0 7 5 13 11 13 5
0 8 4 5 9 -3 4 3 16 14 26 11 10 20 22 20 27 0 4 23 40 50 78 28 39 48 76 44
82 -4 6 -3 8 3 5 9 -5 43 32 46 50 1 4 10 18 22 31 11 12 28 32 37 42 10 11
16 20 13 20 -3 0 3 9 12 19 10 11 27 32 38 46 11 15 26 33 32 40 7 8 13 16 13
19 0 3 16 21 37 41 20 19 32 35 28 35 -5 0 0 9 11 20 10 10 24 25 30 32 6 7
20 20 30 29 11 8 28 28 39 44 24 35 370 385 380 385 4 0 34 26 67 58 32 31 65
59 71 61 7 2 21 14 33 26 11 12 34 31 50 41 16 10 37 29 47 41 10 13 24 23 31
23 7 0 23 11 36 25 13 14 27 25 32 25 5 0 20 11 34 25 14 14 30 25 37 25 7 0
18 9 25 20 7 12 17 18 22 15 6 -3 10 -2 10 2 0 5 15 17 33 28 17 10 40 27 50
38 9 11 20 17 24 14 3 -4 13 2 22 12 9 10 26 21 39 25 12 4 22 12 22 17 0 5 7
9 15 9 8 0 15 5 15 10 0 6 9 10 20 10 11 0 20 4 20 10 0 5 17 17 38 27 20 9
39 19 42 22 8 9 43 30 69 41 13 6 36 19 51 30 15 11 30 17 34 13 3 -3 6 -1 6
5 0 7 7 12 15 12 8 0 15 5 15 10 0 6 9 10 19 10 11 0 21 3 23 8 4 10 101 57
116 55 6 0 12 5 12 13 0 8 6 11 15 8 8 -4 15 -1 15 6 0 7 6 10 14 7 8 -3 16
-1 18 4 2 6 10 11 18 12 8 2 22 7 30 12 8 5 17 10 20 11 3 0 19 7 35 14 17 7
33 13 38 12 4 -1 7 2 7 6 0 4 20 14 45 21 25 7 45 17 45 22 0 4 9 6 20 4 11
-2 20 0 20 6 0 5 7 9 15 9 8 0 23 4 33 9 42 21 94 41 107 41 8 0 15 4 15 9 0
5 11 8 24 7 14 -2 27 3 30 10 3 8 12 11 20 8 8 -3 17 -1 21 5 3 6 17 11 30 11
13 0 27 5 30 10 3 6 15 10 25 10 17 0 90 21 130 37 8 4 25 7 37 8 12 0 25 4
29 8 4 4 18 7 31 7 13 0 23 4 23 9 0 5 15 8 34 7 19 -1 32 2 30 6 -3 5 -2 8 3
9 4 0 22 2 38 3 17 1 40 8 53 15 12 6 27 9 33 6 5 -4 15 -2 22 3 7 5 27 9 45
9 19 0 37 4 40 9 4 5 23 10 42 11 76 5 150 16 150 23 0 5 25 8 55 8 30 -1 60
3 67 9 7 5 39 9 71 8 31 -1 57 2 57 7 0 4 42 8 94 8 52 0 97 4 100 8 5 8 595
6 761 -3z"/>
<path d="M4838 10862 c-10 -2 -18 -7 -18 -11 0 -4 -14 -6 -30 -5 -17 1 -33 -2
-36 -7 -3 -5 -18 -9 -35 -9 -16 0 -29 -4 -29 -9 0 -5 -8 -8 -17 -6 -10 1 -27
-2 -38 -8 -11 -6 -27 -12 -35 -12 -20 -2 -73 -16 -85 -24 -5 -3 -14 -6 -20 -7
-11 -2 -101 -32 -125 -41 -8 -3 -21 -7 -28 -9 -8 -1 -16 -5 -19 -8 -9 -9 -7
-301 2 -316 5 -8 9 -88 10 -177 l1 -164 -41 -45 c-22 -25 -80 -88 -129 -140
-49 -52 -86 -94 -82 -94 3 0 -37 -45 -91 -100 -54 -55 -111 -117 -128 -138
-16 -22 -33 -38 -37 -35 -5 2 -8 0 -8 -5 0 -6 -28 -40 -62 -76 -35 -36 -78
-82 -95 -102 -74 -83 -124 -134 -133 -134 -5 0 -12 -10 -15 -21 -4 -12 -47
-61 -96 -111 -49 -49 -89 -92 -89 -97 0 -4 -43 -50 -95 -102 -52 -52 -95 -100
-95 -107 0 -21 -27 -25 -52 -8 -12 9 -33 16 -45 16 -13 0 -23 5 -23 10 0 6 -9
10 -20 10 -11 0 -20 4 -20 8 0 5 -15 9 -32 10 -18 0 -34 5 -36 10 -1 4 -21 7
-43 5 -24 -2 -38 1 -34 7 7 11 -263 13 -280 2 -5 -4 -26 -7 -45 -9 -19 -1 -36
-6 -38 -11 -2 -6 -12 -8 -22 -5 -11 3 -20 0 -20 -6 0 -6 -11 -11 -24 -11 -14
0 -28 -5 -31 -11 -4 -6 -13 -8 -20 -5 -8 3 -19 -2 -25 -9 -7 -8 -16 -13 -20
-10 -5 3 -11 1 -15 -5 -3 -5 -16 -10 -27 -10 -12 0 -19 -3 -15 -6 8 -8 -16
-33 -26 -27 -4 3 -16 -5 -27 -17 -10 -12 -21 -21 -25 -20 -4 1 -19 -9 -35 -23
-15 -14 -30 -24 -32 -21 -6 5 -108 -101 -108 -113 0 -4 -14 -21 -30 -37 -16
-16 -27 -33 -24 -37 3 -5 1 -9 -4 -9 -10 0 -77 -118 -77 -135 0 -5 -4 -13 -8
-16 -4 -3 -9 -16 -10 -27 -1 -12 -5 -22 -9 -22 -4 0 -8 -11 -8 -24 0 -14 -4
-28 -10 -31 -5 -3 -8 -16 -6 -28 2 -12 -1 -31 -8 -42 -15 -26 -15 -367 0 -372
6 -2 9 -21 7 -43 -2 -22 2 -40 7 -40 6 0 10 -11 10 -24 0 -14 5 -28 11 -32 6
-3 9 -15 6 -25 -3 -10 -1 -19 5 -21 5 -2 11 -10 13 -18 9 -39 18 -60 27 -60 6
0 8 -7 4 -15 -3 -8 -2 -15 2 -15 4 0 16 -15 26 -32 11 -18 34 -52 53 -75 18
-23 33 -44 33 -47 0 -10 114 -116 125 -116 6 0 16 -9 23 -20 7 -11 17 -20 23
-20 6 0 30 -14 55 -30 24 -17 44 -27 44 -23 0 4 4 3 8 -2 12 -17 59 -38 70
-31 5 3 13 -1 16 -10 3 -8 10 -13 15 -9 5 3 12 1 16 -5 3 -5 19 -10 35 -10 16
0 32 -5 35 -11 4 -5 17 -9 28 -7 12 1 29 -2 37 -7 18 -11 279 -14 301 -4 9 5
33 9 53 11 20 1 36 5 36 9 0 4 12 9 28 12 58 11 76 17 84 29 4 7 8 9 8 4 0 -5
7 -3 15 4 8 7 15 9 15 5 0 -5 9 0 20 10 11 10 20 14 20 9 0 -5 4 -4 8 1 4 6
19 16 34 24 15 8 25 19 21 24 -3 6 -1 7 4 4 6 -4 22 2 36 13 14 11 28 20 31
20 11 0 176 172 172 179 -3 4 4 14 15 21 10 8 19 20 19 27 0 7 4 13 9 13 5 0
13 10 17 23 3 12 15 34 25 49 11 14 19 35 19 46 0 12 5 24 10 27 6 4 8 10 5
15 -3 4 2 10 10 14 8 3 12 12 9 20 -3 8 -2 21 3 28 4 7 8 22 8 33 0 11 4 26 8
32 19 30 34 337 18 356 -5 7 -9 28 -8 47 1 19 -3 41 -10 48 -7 7 -10 19 -6 27
3 9 0 22 -7 30 -6 8 -9 18 -6 23 3 6 -1 15 -10 22 -8 7 -13 19 -10 27 3 7 2
13 -3 13 -5 0 -11 8 -13 18 -4 12 8 31 32 55 21 20 36 38 33 41 -2 2 36 44 86
94 50 49 91 92 91 96 0 11 172 186 183 186 4 0 22 -13 39 -30 16 -16 31 -30
33 -30 2 0 28 -25 57 -55 48 -50 70 -95 47 -95 -5 0 -9 -11 -9 -24 0 -14 -4
-27 -8 -30 -5 -3 -8 -24 -7 -46 1 -22 -2 -43 -7 -46 -4 -3 -6 -9 -3 -14 3 -5
1 -11 -5 -15 -6 -4 -5 -17 3 -38 7 -18 12 -58 11 -89 0 -32 3 -58 7 -58 5 0 9
-11 9 -24 0 -14 5 -28 10 -31 6 -4 8 -9 6 -13 -2 -4 4 -23 14 -42 11 -19 23
-45 29 -56 5 -12 17 -24 25 -27 9 -4 16 -13 16 -21 0 -18 54 -73 80 -81 11 -4
20 -10 20 -15 0 -12 141 -80 152 -74 4 3 8 0 8 -5 0 -6 20 -11 45 -11 25 0 45
-4 45 -8 0 -10 116 -9 126 1 4 4 22 7 41 7 18 0 41 4 51 9 16 9 50 23 62 25
21 5 104 63 121 84 11 15 23 26 25 24 22 -13 163 225 148 249 -3 6 -1 16 5 22
14 17 13 268 -1 285 -6 7 -8 15 -5 19 3 3 0 18 -8 33 -8 15 -11 30 -8 34 4 3
2 6 -4 6 -10 0 -26 35 -24 51 0 4 -9 15 -19 24 -11 10 -20 22 -20 27 0 13
-110 119 -118 114 -5 -3 -15 4 -22 15 -8 10 -20 19 -27 19 -7 0 -13 4 -13 10
0 5 -7 7 -15 4 -8 -4 -15 -1 -15 5 0 6 -11 11 -24 11 -14 0 -28 5 -31 11 -4 6
-13 8 -21 5 -7 -3 -17 0 -21 7 -9 14 -233 18 -233 5 0 -5 -13 -8 -29 -8 -17 0
-33 -4 -36 -10 -3 -5 -15 -10 -26 -10 -10 0 -19 -5 -19 -10 0 -32 -79 33 -198
163 l-23 25 75 74 c42 41 76 79 76 84 0 6 41 50 90 99 50 48 88 90 86 92 -2 3
42 51 99 108 56 57 101 106 99 108 -3 2 34 42 82 89 47 47 85 92 84 99 -5 32
1 60 10 54 13 -8 3 80 -11 108 -7 11 -6 17 1 17 6 0 9 4 5 10 -5 8 -9 161 -5
185 2 6 1 15 0 20 -3 12 -2 131 0 143 1 4 1 12 0 17 -6 29 -5 67 2 71 5 3 5
10 2 16 -6 10 -9 217 -4 243 1 6 1 15 0 20 -1 6 -2 45 -2 87 0 79 -8 98 -40
90z m-176 -2347 c4 -5 15 -11 25 -11 28 -2 63 -15 63 -24 0 -4 12 -12 26 -19
15 -6 24 -14 21 -17 -3 -4 3 -15 14 -27 10 -11 19 -31 19 -43 0 -12 5 -24 12
-26 12 -4 5 -32 -26 -98 -10 -23 -62 -83 -68 -79 -2 1 -19 -5 -39 -14 -42 -17
-122 -16 -164 3 -38 17 -95 70 -95 87 0 7 -5 13 -11 13 -6 0 -9 6 -6 14 3 8 2
16 -3 18 -19 7 -9 108 11 108 5 0 9 7 9 15 0 18 39 58 59 63 7 1 20 10 29 18
8 9 23 13 33 11 10 -3 23 1 28 7 13 15 53 15 63 1z m-1928 -301 c2 -6 15 -9
30 -7 24 5 86 -15 86 -28 0 -4 6 -6 13 -5 33 3 114 -75 148 -142 13 -26 27
-49 30 -52 12 -10 11 -170 -1 -170 -6 0 -9 -4 -6 -8 3 -5 -1 -20 -9 -35 -8
-15 -11 -27 -7 -27 4 0 -1 -5 -11 -11 -9 -6 -15 -13 -13 -17 2 -4 -18 -29 -45
-56 -27 -27 -49 -45 -49 -42 0 4 -13 -2 -29 -13 -16 -12 -36 -21 -45 -21 -9 0
-16 -5 -16 -10 0 -6 -11 -8 -25 -6 -13 3 -27 0 -30 -5 -8 -12 -105 -12 -105 1
0 5 -10 8 -22 6 -40 -6 -113 34 -176 95 -34 33 -62 66 -62 74 0 8 -4 15 -9 15
-15 0 -30 59 -38 143 -3 41 -1 57 7 57 7 0 10 8 7 20 -3 11 -2 20 3 20 4 0 15
17 23 39 9 21 29 50 46 63 16 14 27 29 24 32 -4 3 1 6 9 6 9 0 18 7 22 15 3 8
13 15 21 15 9 0 13 4 10 10 -3 5 12 12 35 16 22 4 40 10 40 15 0 5 17 9 38 9
20 0 43 4 51 9 19 13 49 10 55 -5z"/>
<path d="M7124 10801 c1 -25 -1 -65 -5 -88 -3 -24 -3 -43 0 -43 9 0 5 -75 -5
-91 -4 -8 -9 -189 -9 -404 l-1 -390 23 -23 c13 -13 23 -27 23 -33 0 -6 40 -49
88 -97 49 -48 93 -95 98 -104 5 -10 48 -58 94 -107 68 -71 206 -218 288 -306
6 -7 12 -17 12 -22 0 -4 16 -21 34 -38 l34 -30 -96 -95 c-53 -52 -101 -95
-107 -95 -5 -1 -25 7 -43 17 -18 10 -43 18 -56 18 -12 0 -26 3 -30 7 -9 10
-208 12 -221 3 -9 -6 -52 -19 -72 -21 -5 -1 -17 -6 -28 -12 -11 -6 -24 -11
-28 -12 -5 0 -15 -8 -22 -19 -8 -10 -18 -15 -24 -12 -5 4 -15 -3 -21 -14 -6
-11 -17 -20 -24 -20 -8 0 -28 -16 -45 -35 -17 -19 -35 -35 -41 -35 -6 0 -9 -4
-5 -10 3 -5 -3 -18 -15 -30 -11 -11 -20 -22 -20 -25 1 -11 -34 -80 -44 -87 -6
-4 -7 -8 -2 -8 5 0 3 -7 -4 -15 -6 -8 -9 -19 -6 -24 4 -5 2 -12 -3 -15 -5 -3
-7 -15 -4 -26 3 -11 1 -20 -4 -20 -13 0 -9 -208 4 -221 6 -6 9 -18 6 -26 -9
-23 35 -134 76 -193 29 -40 131 -145 131 -134 0 4 10 -1 23 -12 12 -11 36 -26
52 -33 17 -7 37 -17 45 -21 8 -4 23 -6 33 -4 9 1 15 -1 12 -6 -16 -25 258 -27
289 -1 7 6 18 11 22 10 14 -3 74 22 74 30 0 4 6 8 13 8 36 0 198 155 202 193
1 3 11 25 24 49 26 50 32 69 38 129 3 23 8 42 12 42 9 0 8 177 -2 186 -4 4 -7
20 -7 35 0 15 -5 31 -11 34 -6 4 -8 13 -5 21 3 8 0 19 -7 26 -11 9 7 32 87
109 l100 97 23 -21 c12 -12 23 -26 23 -31 0 -4 36 -44 79 -87 44 -44 89 -92
100 -107 10 -15 58 -67 105 -115 62 -62 86 -94 86 -112 0 -14 -4 -25 -10 -25
-5 0 -10 -11 -10 -25 0 -14 -5 -25 -11 -25 -6 0 -9 -6 -6 -12 2 -7 -1 -24 -8
-38 -7 -14 -11 -33 -10 -42 2 -10 -1 -20 -6 -24 -5 -3 -9 -34 -9 -69 0 -35 -4
-66 -8 -69 -10 -6 -10 -102 1 -112 4 -4 7 -38 7 -75 0 -37 4 -71 10 -74 5 -3
8 -19 6 -35 -2 -16 1 -31 7 -33 5 -1 11 -14 12 -27 1 -14 8 -41 16 -60 7 -19
12 -38 11 -42 -1 -5 3 -8 8 -8 6 0 10 -9 10 -20 0 -11 4 -20 9 -20 8 0 21 -28
25 -53 0 -5 9 -14 19 -21 9 -7 17 -18 17 -24 0 -6 11 -22 25 -36 14 -14 25
-29 25 -33 0 -14 124 -133 138 -133 7 0 15 -7 18 -15 3 -8 18 -21 32 -28 15
-8 56 -30 90 -51 35 -20 68 -34 72 -31 5 3 10 0 12 -5 2 -6 13 -12 26 -13 12
0 22 -5 22 -9 0 -4 13 -8 29 -8 17 0 32 -4 35 -9 3 -5 25 -12 48 -15 68 -10
319 -13 324 -4 3 4 23 8 45 8 24 0 38 4 34 10 -4 6 8 10 29 10 19 0 38 5 41
11 4 6 13 8 21 5 8 -3 14 -1 14 4 0 6 9 10 20 10 11 0 20 5 20 10 0 6 9 10 20
10 11 0 20 5 20 11 0 5 5 7 10 4 6 -3 10 -1 10 4 0 6 7 11 16 11 9 0 25 10 35
22 11 11 19 18 19 14 0 -13 74 47 145 118 39 38 69 72 68 76 -1 4 9 18 22 30
14 13 25 29 25 36 0 7 3 14 8 16 14 6 84 156 78 167 -4 6 -1 11 7 11 9 0 13 9
12 25 -2 14 1 27 6 31 5 3 9 18 9 35 0 16 4 29 9 29 5 0 8 25 7 55 -1 31 3 56
9 58 13 6 12 201 -1 219 -6 7 -9 32 -8 56 1 23 -2 42 -7 42 -5 0 -9 16 -9 35
0 19 -5 35 -11 35 -5 0 -8 4 -5 9 3 4 -4 25 -14 47 -11 21 -20 46 -20 56 0 10
-5 18 -11 18 -5 0 -8 4 -5 9 3 5 -1 15 -10 22 -15 12 -31 43 -32 62 -1 4 -15
21 -32 37 -17 16 -31 33 -31 37 0 13 -129 142 -160 160 -16 10 -29 21 -29 25
0 4 -6 8 -13 8 -8 0 -22 9 -32 20 -10 11 -20 18 -23 15 -3 -2 -18 5 -33 16
-16 11 -29 17 -29 13 0 -3 -7 0 -17 7 -9 8 -24 13 -35 11 -10 -2 -18 2 -18 7
0 6 -9 11 -20 11 -11 0 -20 5 -20 11 0 6 -9 9 -20 6 -10 -3 -27 1 -36 8 -9 6
-31 10 -47 9 -17 -2 -35 0 -41 5 -16 13 -274 13 -282 0 -3 -6 -18 -9 -32 -8
-15 1 -38 -3 -52 -8 -14 -6 -28 -9 -31 -7 -4 2 -12 -3 -19 -11 -6 -7 -17 -12
-25 -9 -7 3 -16 1 -20 -5 -3 -6 -15 -11 -26 -11 -10 0 -19 -5 -19 -11 0 -5 -5
-7 -11 -3 -6 3 -15 1 -19 -7 -7 -10 -29 7 -84 61 -42 41 -76 79 -76 84 0 5
-44 53 -99 107 -54 54 -96 101 -93 103 3 3 -36 45 -87 94 -50 49 -91 93 -91
98 0 5 -43 52 -95 104 -52 52 -95 99 -95 104 0 5 -42 51 -94 102 -51 51 -91
96 -88 99 3 3 -1 5 -8 5 -7 0 -11 3 -8 6 3 3 -38 50 -91 105 -126 131 -214
227 -224 245 -5 8 -5 20 0 27 5 7 9 149 9 316 l-1 304 -25 10 c-14 5 -29 11
-35 12 -5 0 -18 4 -27 8 -44 17 -54 20 -68 21 -8 0 -18 5 -22 11 -4 5 -15 10
-25 10 -10 0 -22 3 -28 6 -14 9 -67 22 -89 23 -11 1 -21 6 -23 13 -2 6 -15 9
-30 7 -14 -3 -30 -1 -37 4 -15 12 -63 25 -102 27 -32 3 -32 2 -30 -44z m254
-2283 c6 -6 21 -12 34 -13 52 -4 122 -58 143 -110 11 -27 14 -115 3 -115 -4 0
-8 -8 -8 -18 0 -10 -9 -24 -19 -32 -11 -7 -18 -17 -16 -20 3 -4 -7 -12 -20
-18 -14 -7 -25 -16 -25 -22 0 -5 -9 -10 -20 -10 -11 0 -20 -4 -20 -8 0 -5 -31
-9 -68 -9 -61 0 -73 4 -122 36 -30 20 -53 40 -51 45 1 5 -1 12 -6 15 -28 20
-37 110 -16 161 12 28 86 99 106 101 6 1 22 3 35 4 13 1 28 7 35 14 14 14 20
14 35 -1z m1936 -300 c-3 -4 15 -8 40 -8 25 0 46 -4 46 -8 0 -4 10 -8 22 -9
11 -1 25 -8 29 -15 5 -7 9 -9 9 -5 0 4 17 -5 37 -20 62 -46 83 -66 78 -73 -3
-4 4 -15 15 -25 11 -10 20 -24 20 -32 0 -7 4 -13 8 -13 4 0 8 -10 9 -22 1 -11
6 -24 10 -27 9 -7 11 -141 3 -141 -3 0 -12 -20 -19 -45 -7 -25 -19 -49 -26
-53 -8 -4 -15 -14 -17 -21 -3 -14 -24 -37 -67 -73 -12 -10 -21 -15 -21 -12 0
3 -7 -2 -16 -10 -8 -9 -19 -14 -23 -11 -5 2 -17 -4 -27 -13 -11 -10 -33 -17
-51 -16 -18 1 -33 -3 -33 -7 0 -13 -98 -11 -106 2 -3 6 -19 9 -35 7 -17 -3
-30 1 -33 9 -3 7 -12 10 -21 7 -8 -3 -15 -1 -15 5 0 6 -6 11 -13 11 -7 0 -24
11 -39 25 -15 14 -32 25 -38 25 -5 0 -10 5 -10 10 0 6 -11 22 -25 36 -14 14
-23 29 -20 34 2 4 -2 13 -10 20 -8 7 -12 16 -9 21 3 5 0 9 -5 9 -6 0 -11 11
-11 24 0 14 -4 27 -8 30 -11 6 -8 103 2 131 23 59 41 91 58 103 10 7 16 17 13
22 -5 8 92 87 101 82 3 -1 11 4 20 12 8 8 21 13 28 10 8 -3 17 -1 21 5 3 6 21
11 40 11 19 0 36 4 39 8 2 4 16 8 30 8 13 0 22 -4 20 -8z"/>
<path d="M5742 7395 c-9 -7 -28 -11 -42 -10 -14 1 -34 -2 -45 -8 -11 -6 -30
-10 -42 -8 -11 1 -24 -3 -28 -8 -3 -6 -15 -11 -26 -11 -10 0 -19 -4 -19 -10 0
-5 -3 -9 -7 -8 -15 3 -63 -14 -63 -22 0 -5 -13 -11 -30 -15 -16 -4 -30 -10
-30 -15 0 -4 -11 -11 -24 -14 -14 -3 -31 -12 -38 -19 -7 -7 -29 -24 -48 -37
-77 -54 -224 -201 -225 -223 0 -5 -7 -14 -15 -20 -9 -7 -15 -19 -15 -27 0 -8
-7 -21 -17 -28 -10 -7 -18 -20 -18 -28 0 -8 -4 -14 -10 -14 -5 0 -10 -3 -9 -7
2 -16 -14 -53 -23 -53 -5 0 -8 -6 -6 -12 1 -7 -4 -24 -12 -38 -7 -14 -13 -27
-13 -30 1 -8 -8 -34 -18 -52 -5 -10 -9 -28 -9 -41 0 -13 -3 -27 -7 -31 -4 -4
-8 -24 -8 -44 -1 -20 -5 -48 -9 -61 -11 -33 -10 -214 1 -237 5 -11 9 -37 8
-59 0 -22 4 -46 10 -54 8 -12 7 -13 -5 -6 -13 8 -13 7 0 -9 8 -11 13 -29 12
-41 -2 -13 2 -26 7 -30 6 -3 11 -17 11 -31 0 -17 4 -23 12 -18 7 4 8 3 4 -4
-4 -7 2 -33 13 -58 12 -25 18 -50 15 -55 -3 -5 -1 -9 4 -9 5 0 15 -13 22 -30
7 -16 17 -30 23 -30 6 0 7 -3 4 -7 -4 -3 0 -15 10 -25 9 -10 13 -18 9 -18 -4
0 5 -11 19 -25 14 -14 25 -30 25 -34 0 -22 193 -197 267 -243 45 -27 84 -48
86 -46 3 1 15 -6 27 -17 12 -11 23 -19 24 -17 0 2 9 1 19 -2 28 -10 42 -13 50
-15 4 0 20 -7 36 -15 16 -9 30 -13 33 -11 2 3 4 -944 3 -2103 0 -1708 2 -2112
12 -2134 8 -15 12 -31 11 -35 -2 -5 16 -9 40 -11 23 -2 42 -6 42 -10 0 -10
437 -9 447 1 4 5 9 970 10 2145 1 1175 2 2145 2 2155 1 11 6 15 12 11 6 -3 21
-2 32 3 12 6 51 23 87 39 36 15 79 38 95 49 17 12 38 24 48 28 9 3 17 11 17
16 0 5 9 12 20 16 26 8 200 184 200 202 0 7 7 16 15 19 8 4 15 15 15 26 0 10
4 17 9 14 7 -5 25 22 21 32 0 1 6 10 15 18 8 9 13 19 10 23 -2 5 4 17 14 27 9
11 16 25 13 32 -2 6 1 12 6 12 9 0 20 27 28 70 2 8 7 16 12 18 4 1 7 16 6 32
-1 17 2 30 7 30 5 0 9 16 9 35 0 19 4 35 8 35 5 0 8 26 7 58 0 31 4 66 10 77
14 25 13 178 -1 197 -6 7 -10 34 -8 61 1 26 -2 47 -7 47 -5 0 -9 16 -9 35 0
19 -4 35 -9 35 -5 0 -8 8 -7 18 2 9 -4 27 -12 40 -8 12 -11 22 -8 22 4 0 0 13
-8 29 -9 16 -12 31 -9 35 4 3 1 6 -6 6 -7 0 -9 5 -6 10 3 6 0 13 -9 16 -8 3
-13 11 -10 18 3 7 -4 21 -16 31 -11 10 -20 23 -20 29 0 22 -72 111 -165 204
-52 52 -95 92 -95 88 0 -7 -18 6 -77 54 -7 6 -19 10 -28 10 -8 0 -15 4 -15 8
0 7 -63 35 -66 30 -1 -2 -11 5 -22 15 -11 10 -23 17 -28 16 -5 -1 -22 4 -39
11 -16 7 -39 15 -50 17 -11 2 -27 6 -35 10 -8 3 -24 7 -35 7 -11 1 -36 6 -55
10 -28 7 -95 9 -225 5 -5 0 -25 2 -43 4 -18 2 -41 -2 -50 -8z m213 -595 c3 -6
21 -10 40 -10 19 0 36 -4 40 -9 3 -6 14 -8 25 -6 11 2 20 0 20 -4 0 -4 16 -13
35 -21 19 -8 35 -17 35 -21 0 -4 8 -10 19 -14 25 -8 111 -94 111 -111 0 -8 4
-14 10 -14 5 0 17 -17 27 -37 9 -21 20 -40 23 -43 3 -3 5 -12 5 -20 -1 -8 3
-24 9 -35 15 -29 14 -167 -2 -183 -7 -8 -10 -17 -7 -22 3 -5 1 -11 -5 -15 -5
-3 -10 -17 -10 -30 0 -13 -3 -25 -7 -27 -5 -1 -21 -23 -38 -48 -34 -53 -86
-109 -100 -110 -6 0 -17 -9 -25 -19 -7 -11 -17 -18 -21 -15 -4 2 -10 0 -14 -6
-3 -5 -15 -10 -26 -10 -10 0 -19 -4 -19 -9 0 -8 -43 -21 -80 -25 -8 -1 -26 -6
-40 -11 -36 -12 -91 -12 -120 0 -14 6 -35 10 -47 9 -13 0 -23 3 -23 7 0 5 -11
9 -25 9 -14 0 -25 4 -25 9 0 5 -13 12 -30 16 -16 4 -36 14 -42 23 -7 9 -19 18
-27 20 -21 4 -103 91 -97 101 3 5 -1 11 -9 14 -16 7 -59 92 -60 122 0 11 -4
26 -9 33 -4 7 -7 25 -7 40 1 15 1 36 1 47 -1 57 1 79 8 89 4 6 7 13 8 16 6 31
18 60 25 60 5 0 9 9 9 20 0 11 4 20 9 20 5 0 12 8 15 18 17 52 197 187 234
174 7 -2 12 1 12 7 0 6 18 11 39 11 22 0 42 3 45 8 7 11 104 13 111 2z"/>
<path d="M3510 7030 c0 -5 -19 -8 -42 -8 -23 0 -44 -4 -46 -10 -2 -6 -14 -9
-27 -6 -13 2 -27 0 -30 -6 -3 -5 -17 -10 -31 -10 -13 0 -24 -4 -24 -10 0 -5
-7 -10 -15 -10 -8 0 -15 -4 -15 -10 0 -5 -7 -7 -15 -4 -8 4 -15 1 -15 -5 0 -6
-6 -11 -13 -11 -7 0 -23 -9 -35 -20 -12 -12 -22 -18 -22 -14 0 6 -11 -3 -109
-85 -23 -19 -41 -40 -41 -47 0 -7 -8 -20 -17 -30 -26 -26 -83 -116 -89 -141
-4 -13 -10 -23 -14 -23 -7 0 -17 -36 -23 -87 -2 -12 -6 -25 -10 -29 -4 -4 -7
-27 -7 -50 0 -24 -4 -45 -9 -48 -11 -7 -12 -144 0 -152 5 -3 9 -32 9 -65 0
-32 4 -59 9 -59 5 0 8 -8 7 -17 -2 -9 5 -39 15 -67 10 -27 16 -52 14 -56 -3
-5 2 -11 10 -14 8 -3 14 -9 13 -13 -4 -13 32 -73 43 -73 6 0 7 -5 4 -10 -4 -6
9 -26 29 -45 20 -18 36 -41 36 -49 0 -9 6 -16 13 -16 7 0 19 -9 27 -20 8 -11
18 -20 23 -20 5 0 22 -14 38 -31 16 -17 29 -28 29 -23 0 4 10 -2 23 -14 13
-12 27 -19 30 -15 4 3 7 1 7 -5 0 -7 9 -12 20 -12 11 0 20 -4 20 -10 0 -5 8
-10 18 -10 10 0 22 -3 26 -7 4 -5 12 -9 17 -9 5 -1 12 -2 17 -3 12 -2 13 -45
17 -736 2 -368 7 -686 10 -705 4 -19 8 -132 10 -250 1 -118 3 -218 4 -222 0
-4 24 -30 51 -58 28 -28 50 -55 50 -59 0 -4 31 -39 70 -77 38 -38 70 -73 70
-78 0 -5 34 -43 75 -84 41 -41 75 -78 75 -82 0 -4 35 -43 77 -86 43 -44 77
-82 76 -85 -1 -4 31 -40 72 -79 41 -40 73 -76 72 -80 -1 -4 24 -33 57 -66 32
-32 70 -75 85 -94 14 -19 52 -60 84 -91 31 -32 57 -62 57 -68 0 -6 3 -11 8
-11 10 0 10 -504 0 -511 -6 -4 -14 -601 -9 -690 1 -9 18 -21 44 -29 23 -8 47
-17 53 -22 6 -5 19 -6 28 -2 9 4 18 0 22 -9 3 -8 13 -13 24 -10 10 3 21 0 24
-6 4 -6 20 -11 37 -11 16 0 29 -4 29 -9 0 -6 9 -8 20 -6 11 2 22 0 25 -6 4 -5
19 -9 34 -9 15 0 31 -3 35 -7 4 -4 17 -8 29 -9 12 -1 30 -5 40 -9 13 -5 17 -2
17 14 0 12 4 21 8 21 4 0 8 224 7 498 0 300 3 502 9 510 5 7 10 122 10 263 l1
251 -30 42 c-16 23 -58 70 -92 104 -35 34 -63 65 -63 70 0 5 -34 42 -75 83
-41 41 -75 79 -75 84 0 6 -31 41 -70 79 -38 38 -70 73 -70 78 0 5 -31 39 -68
76 -37 37 -75 78 -84 90 -9 13 -46 55 -82 93 -36 37 -66 71 -66 75 0 4 -31 38
-70 76 -38 38 -70 73 -70 78 0 5 -18 27 -40 49 -22 22 -40 47 -40 55 0 9 -3
16 -7 16 -5 0 -9 305 -10 677 -1 693 -2 743 -16 743 -4 0 -4 8 0 18 5 9 8 28
7 42 -4 41 -4 72 -3 123 l1 48 57 26 c31 14 57 25 59 24 2 -1 12 7 21 18 10
12 23 21 28 21 25 0 207 182 195 195 -4 3 -2 9 4 13 36 25 106 204 109 277 1
17 5 48 10 70 11 52 13 175 3 169 -4 -3 -8 3 -9 13 -1 56 -15 139 -25 155 -5
7 -9 18 -10 23 -3 26 -17 55 -27 55 -6 0 -7 3 -4 7 4 3 0 15 -10 25 -9 10 -12
18 -8 18 5 0 -2 11 -15 25 -13 14 -20 25 -15 25 5 0 0 9 -11 20 -28 28 -46 50
-40 50 10 0 -75 80 -104 96 -16 10 -30 22 -30 26 0 4 -6 5 -14 2 -7 -3 -16 2
-19 10 -7 16 -123 76 -149 76 -9 0 -20 5 -23 11 -4 6 -13 8 -21 5 -8 -3 -17 0
-20 7 -3 9 -20 12 -54 10 -28 -2 -50 0 -50 5 0 5 -36 10 -80 10 -44 1 -80 -3
-80 -8z m140 -529 c0 -4 11 -8 24 -7 13 0 36 -8 51 -19 49 -34 107 -94 101
-104 -4 -5 -1 -11 4 -13 6 -2 12 -13 13 -26 0 -12 4 -22 8 -22 10 0 9 -62 -1
-75 -4 -5 -10 -22 -14 -37 -3 -16 -11 -28 -16 -28 -6 0 -10 -6 -10 -12 -1 -34
-104 -108 -150 -108 -11 0 -20 -4 -20 -8 0 -11 -89 -12 -95 -1 -4 5 -17 9 -31
9 -13 0 -24 4 -24 9 0 7 -21 17 -50 25 -15 3 -57 55 -69 84 -7 17 -17 32 -22
32 -5 0 -6 6 -3 14 3 8 1 17 -5 21 -14 8 -14 72 0 81 6 3 9 15 6 25 -3 11 -1
19 4 19 5 0 9 7 9 15 0 8 3 15 8 15 4 0 16 13 27 29 10 16 23 27 27 25 4 -3 8
0 8 5 0 6 5 11 12 11 6 0 19 7 28 15 9 8 26 16 38 18 12 2 25 6 28 10 10 10
114 9 114 -2z"/>
<path d="M8170 7030 c-8 -4 -30 -7 -48 -6 -18 1 -37 -3 -43 -10 -6 -7 -16 -11
-24 -8 -7 3 -16 1 -20 -5 -3 -6 -15 -11 -26 -11 -20 0 -51 -15 -81 -39 -9 -7
-22 -11 -29 -9 -12 4 -19 0 -74 -50 -14 -12 -25 -19 -25 -15 0 4 -31 -24 -70
-62 -38 -37 -67 -72 -64 -77 3 -4 1 -8 -3 -8 -9 0 -46 -57 -41 -62 2 -2 -7
-16 -19 -32 -13 -16 -23 -37 -23 -47 0 -11 -5 -19 -11 -19 -5 0 -7 -4 -4 -10
3 -5 2 -10 -3 -10 -6 0 -13 -17 -16 -37 -3 -21 -8 -54 -11 -73 -3 -19 -9 -37
-13 -40 -11 -8 -6 -212 5 -240 6 -13 8 -39 6 -57 -3 -21 0 -33 7 -33 8 0 11
-10 8 -24 -3 -16 0 -27 9 -31 8 -3 13 -11 11 -17 -6 -16 63 -146 108 -204 69
-92 161 -165 265 -212 32 -15 48 -28 50 -44 6 -33 1 -1289 -4 -1313 -3 -11 -6
-22 -7 -25 -1 -3 -2 -79 -2 -170 l-1 -164 -58 -60 c-33 -33 -59 -64 -59 -69 0
-5 -28 -37 -63 -71 -35 -33 -71 -72 -79 -84 -9 -13 -49 -57 -88 -98 -40 -41
-69 -74 -64 -74 4 0 -21 -28 -57 -63 -35 -35 -77 -81 -94 -103 -16 -21 -54
-63 -84 -91 -30 -29 -51 -53 -46 -53 4 0 -27 -36 -70 -79 -42 -43 -78 -83 -78
-87 -1 -5 -34 -42 -74 -83 l-73 -74 0 -76 c-1 -119 2 -785 3 -798 0 -7 3 -13
6 -13 4 0 6 -161 6 -358 l0 -357 24 -3 c13 -2 35 2 47 9 13 7 27 10 30 6 4 -3
16 -1 28 5 11 7 30 13 41 15 76 11 95 16 95 24 0 5 12 7 26 5 16 -3 32 1 41
10 8 8 19 12 23 9 5 -3 17 -2 27 3 10 6 31 14 47 18 16 5 28 13 27 18 -2 5 3
13 11 17 10 6 13 45 12 181 0 95 -4 187 -9 203 -4 17 -8 215 -9 440 l-1 410
52 51 c29 28 49 54 46 58 -4 3 2 6 12 6 10 0 15 3 12 7 -4 3 26 41 65 84 162
173 212 228 221 244 5 10 39 46 76 82 36 36 65 68 64 73 -1 4 29 37 66 74 38
36 67 66 63 66 -3 0 5 9 18 20 13 11 20 20 17 20 -4 0 29 37 73 82 44 45 78
83 76 85 -2 2 25 33 60 68 35 36 65 68 65 72 1 5 3 172 4 373 1 201 6 388 10
415 5 28 9 286 10 575 0 289 5 533 9 542 4 10 12 16 16 13 5 -3 11 -1 15 5 3
5 17 10 31 10 13 0 24 5 24 11 0 6 7 9 15 5 8 -3 15 -1 15 3 0 8 58 48 85 60
17 7 165 159 165 170 0 5 9 16 20 24 11 8 17 17 14 20 -4 3 1 13 10 22 9 9 14
21 11 26 -4 5 -2 9 3 9 9 0 27 47 24 63 -1 4 2 7 7 7 9 0 23 48 25 86 1 12 6
28 12 35 14 19 12 331 -3 336 -5 2 -9 17 -7 33 2 17 -1 30 -6 30 -6 0 -10 11
-10 24 0 14 -5 28 -10 31 -6 4 -8 10 -5 15 3 4 -2 11 -11 14 -8 3 -12 11 -8
17 3 6 3 14 -2 18 -5 3 -18 22 -28 41 -11 19 -24 44 -30 54 -18 31 -179 185
-188 180 -4 -3 -11 2 -14 10 -3 9 -12 16 -19 16 -7 0 -18 7 -25 15 -7 8 -16
12 -21 10 -4 -3 -11 0 -16 7 -4 7 -12 13 -18 14 -22 1 -65 17 -65 24 0 4 -13
7 -30 8 -16 0 -35 4 -41 8 -13 8 -32 10 -154 18 -44 3 -87 1 -95 -4z m160
-531 c8 -1 27 -10 42 -20 14 -11 30 -19 35 -19 15 -1 63 -49 63 -65 0 -8 5
-15 10 -15 6 0 10 -9 10 -20 0 -11 5 -20 11 -20 6 0 9 -6 6 -12 -2 -7 2 -25
10 -40 11 -24 11 -28 0 -28 -8 0 -13 -9 -12 -22 2 -26 -10 -51 -40 -86 -11
-13 -18 -27 -16 -30 2 -4 -6 -12 -18 -18 -11 -6 -29 -18 -39 -27 -10 -10 -22
-14 -25 -10 -4 3 -7 1 -7 -5 0 -7 -11 -12 -25 -12 -14 0 -25 -3 -25 -8 0 -4
-22 -8 -50 -10 -28 -1 -50 3 -50 8 0 6 -16 10 -35 10 -19 0 -35 4 -35 8 0 4
-14 16 -32 27 -37 21 -77 64 -78 83 0 6 -4 12 -10 12 -5 0 -10 9 -10 19 0 11
-4 22 -8 25 -18 11 0 136 19 136 5 0 9 7 9 16 0 20 86 104 106 104 8 0 14 5
14 11 0 5 4 7 10 4 5 -3 18 -1 27 5 15 9 70 8 143 -1z"/>
</g>
</svg>
